<svg width="100" height="100" viewBox="0 0 100 100" xmlns="http://www.w3.org/2000/svg">
  <defs>
    <linearGradient id="nikoGrad" x1="0%" y1="0%" x2="100%" y2="100%">
      <stop offset="0%" style="stop-color:#007fd4;stop-opacity:1" />
      <stop offset="100%" style="stop-color:#23d18b;stop-opacity:1" />
    </linearGradient>
  </defs>
  
  <path d="M35 20 C 25 20, 20 25, 20 35 L 20 45 C 20 50, 15 50, 15 50 C 15 50, 20 50, 20 55 L 20 65 C 20 75, 25 80, 35 80" 
        fill="none" stroke="url(#nikoGrad)" stroke-width="8" stroke-linecap="round"/>
  
  <path d="M65 20 C 75 20, 80 25, 80 35 L 80 45 C 80 50, 85 50, 85 50 C 85 50, 80 50, 80 55 L 80 65 C 80 75, 75 80, 65 80" 
        fill="none" stroke="url(#nikoGrad)" stroke-width="8" stroke-linecap="round"/>
  
  <line x1="38" y1="25" x2="62" y2="75" stroke="url(#nikoGrad)" stroke-width="8" stroke-linecap="round" opacity="0.8"/>
</svg>
